<svg width="128" height="128" viewBox="0 0 128 128" fill="none" xmlns="http://www.w3.org/2000/svg">
<rect x="16" y="59" width="6" height="6" stroke="white" stroke-width="6"/>
<rect x="13" y="56" width="12" height="12" fill="white"/>
<rect x="106" y="59" width="6" height="6" stroke="white" stroke-width="6"/>
<rect x="103" y="56" width="12" height="12" fill="white"/>
<rect x="34" y="33" width="6" height="6" stroke="white" stroke-width="6"/>
<rect x="31" y="30" width="12" height="12" fill="white"/>
<rect x="34" y="51" width="6" height="6" stroke="white" stroke-width="6"/>
<rect x="31" y="48" width="12" height="12" fill="white"/>
<rect x="34" y="69" width="6" height="6" stroke="white" stroke-width="6"/>
<rect x="31" y="66" width="12" height="12" fill="white"/>
<rect x="34" y="87" width="6" height="6" stroke="white" stroke-width="6"/>
<rect x="31" y="84" width="12" height="12" fill="white"/>
<rect x="88" y="33" width="6" height="6" stroke="white" stroke-width="6"/>
<rect x="85" y="30" width="12" height="12" fill="white"/>
<rect x="88" y="51" width="6" height="6" stroke="white" stroke-width="6"/>
<rect x="85" y="48" width="12" height="12" fill="white"/>
<rect x="88" y="69" width="6" height="6" stroke="white" stroke-width="6"/>
<rect x="85" y="66" width="12" height="12" fill="white"/>
<rect x="88" y="87" width="6" height="6" stroke="white" stroke-width="6"/>
<rect x="85" y="84" width="12" height="12" fill="white"/>
<rect x="70" y="50" width="6" height="6" stroke="white" stroke-width="6"/>
<rect x="67" y="47" width="12" height="12" fill="white"/>
<rect x="70" y="68" width="6" height="6" stroke="white" stroke-width="6"/>
<rect x="67" y="65" width="12" height="12" fill="white"/>
<rect x="52" y="16" width="6" height="6" stroke="white" stroke-width="6"/>
<rect x="49" y="13" width="12" height="12" fill="white"/>
<rect x="52" y="34" width="6" height="6" stroke="white" stroke-width="6"/>
<rect x="49" y="31" width="12" height="12" fill="white"/>
<rect x="52" y="52" width="6" height="6" stroke="white" stroke-width="6"/>
<rect x="49" y="49" width="12" height="12" fill="white"/>
<rect x="52" y="70" width="6" height="6" stroke="white" stroke-width="6"/>
<rect x="49" y="67" width="12" height="12" fill="white"/>
<rect x="52" y="88" width="6" height="6" stroke="white" stroke-width="6"/>
<rect x="49" y="85" width="12" height="12" fill="white"/>
<rect x="52" y="106" width="6" height="6" stroke="white" stroke-width="6"/>
<rect x="49" y="103" width="12" height="12" fill="white"/>
</svg>
